<?xml version="1.0" encoding="utf-8"?>
<!-- Generator: Adobe Illustrator 25.4.1, SVG Export Plug-In . SVG Version: 6.00 Build 0)  -->
<svg version="1.1" id="Capa_1" xmlns="http://www.w3.org/2000/svg" xmlns:xlink="http://www.w3.org/1999/xlink" x="0px" y="0px"
	 viewBox="0 0 510.2 510.2" style="enable-background:new 0 0 510.2 510.2;" xml:space="preserve">
<path id="XMLID_638_" d="M239.4,0.2C176,4.1,118.8,31.2,76.2,73.1c-0.5,0.4-1,0.9-1.5,1.3c-0.5,0.5-0.9,1-1.3,1.5
	C28,122.1,0,185.3,0,254.9c0,69.6,28,132.8,73.4,178.9c0.4,0.5,0.9,1,1.3,1.5c0.5,0.5,1,0.9,1.5,1.3C122.3,482,185.5,510,255.1,510
	s132.8-28,178.9-73.4c0.5-0.4,1-0.9,1.5-1.3c0.5-0.5,0.9-1,1.3-1.5c45.4-46.1,73.4-109.3,73.4-178.9s-28-132.8-73.4-178.9
	c-0.4-0.5-0.9-1-1.3-1.5c-0.5-0.5-1-0.9-1.5-1.3c-42.6-41.9-99.8-69-163.2-72.9c0,0-4.4,0-16.9,0C242,0.2,239.4,0.2,239.4,0.2z
	 M478.3,239.2H302c-0.7-2.2-1.6-4.3-2.6-6.4L424,108.2C454.9,143.8,474.8,189.3,478.3,239.2z M270.8,31.7
	c49.9,3.5,95.4,23.4,131,54.4L277.2,210.6c-2-1-4.2-1.9-6.4-2.6V31.7z M239.4,31.7V208c-2.2,0.7-4.3,1.6-6.4,2.6L108.5,86
	C144.1,55.1,189.5,35.2,239.4,31.7z M86.3,108.2l124.6,124.6c-1,2-1.9,4.2-2.6,6.4H31.9C35.4,189.3,55.3,143.8,86.3,108.2z
	 M31.9,270.6h176.3c0.7,2.2,1.6,4.3,2.6,6.4L86.3,401.5C55.3,365.9,35.4,320.5,31.9,270.6z M239.4,478.1
	c-49.9-3.5-95.4-23.4-131-54.4l124.6-124.6c2,1,4.2,1.9,6.4,2.6L239.4,478.1L239.4,478.1z M255.1,272.9c-10,0-18.1-8.1-18.1-18.1
	s8.1-18.1,18.1-18.1c10,0,18.1,8.1,18.1,18.1S265.1,272.9,255.1,272.9z M270.8,478.1V301.8c2.2-0.7,4.3-1.6,6.4-2.6l124.6,124.6
	C366.2,454.7,320.7,474.6,270.8,478.1z M424,401.5L299.4,276.9c1-2,1.9-4.2,2.6-6.4h176.3C474.8,320.5,454.9,365.9,424,401.5z"/>
</svg>
