<?xml version="1.0" encoding="utf-8"?>
<!-- Generator: Adobe Illustrator 25.4.1, SVG Export Plug-In . SVG Version: 6.00 Build 0)  -->
<svg version="1.1" id="Capa_1" xmlns="http://www.w3.org/2000/svg" xmlns:xlink="http://www.w3.org/1999/xlink" x="0px" y="0px"
	 viewBox="0 0 510.2 510.2" style="enable-background:new 0 0 510.2 510.2;" xml:space="preserve">
<g>
	<path d="M507.3,138.9c-2.9-4.1-7.6-6.5-12.6-6.7l-46.2-1.2l5.2-16.9c2.6-8.4-2.1-17.4-10.5-20l-283.2-88c-8.4-2.6-17.4,2.1-20,10.5
		l-44,141.6c-2.6,8.4,2.1,17.4,10.5,20L164,196l-9.5,30.5c-1.3,4-0.9,8.4,1.1,12.2s5.3,6.6,9.4,7.8l26.1,8.1l-64.7,104.6
		c-9.4-4.1-19.7-6.4-30.6-6.4H16c-8.8,0-16,7.1-16,16v120.1c0,8.8,7.1,16,16,16h79.8c41.9,0,76-34.1,76-76
		c0-19.5-7.4-37.4-19.6-50.9c0.3-0.4,0.6-0.8,0.9-1.2l69.5-112.3l33.9,10.5c1.6,0.5,3.2,0.7,4.7,0.7c6.8,0,13.1-4.4,15.2-11.2
		l9.5-30.5l103.8,32.3c1.5,0.5,3.1,0.7,4.7,0.7c2.6,0,5.1-0.6,7.4-1.8c3.7-2,6.6-5.3,7.8-9.4l5.2-16.9l38.7,25.2
		c2.6,1.7,5.6,2.6,8.7,2.6c1.8,0,3.7-0.3,5.4-1c4.7-1.7,8.3-5.5,9.8-10.3l31.8-102.4C511,148.1,510.2,142.9,507.3,138.9L507.3,138.9
		z M31.9,384.7h21.3v88.2H31.9V384.7z M95.8,472.9H85.1v-88.2h10.6c24.3,0,44.1,19.8,44.1,44.1C139.9,453.1,120.1,472.9,95.8,472.9
		L95.8,472.9z M250.7,239.7l-61-19l4.7-15.2l61,19L250.7,239.7z M384,231l-252.7-78.5l34.5-111.1l252.7,78.5l-6.8,21.8l-21,67.5
		c0,0,0,0,0,0C390.8,209.2,384,231,384,231z M453.5,225.7l-28.6-18.6l13.8-44.4l34.1,0.9L453.5,225.7L453.5,225.7z"/>
	<path d="M169,117.9c-4.2,0-8.3,1.7-11.3,4.7c-3,3-4.7,7.1-4.7,11.3c0,4.2,1.7,8.3,4.7,11.3c3,3,7.1,4.7,11.3,4.7
		c4.2,0,8.3-1.7,11.3-4.7c3-3,4.7-7.1,4.7-11.3c0-4.2-1.7-8.3-4.7-11.3C177.3,119.6,173.2,117.9,169,117.9z"/>
</g>
</svg>
