<?xml version="1.0" encoding="utf-8"?>
<!-- Generator: Adobe Illustrator 25.4.1, SVG Export Plug-In . SVG Version: 6.00 Build 0)  -->
<svg version="1.1" id="Layer_1" xmlns="http://www.w3.org/2000/svg" xmlns:xlink="http://www.w3.org/1999/xlink" x="0px" y="0px"
	 viewBox="0 0 510.2 510.2" style="enable-background:new 0 0 510.2 510.2;" xml:space="preserve">
<g>
	<g>
		<path d="M331.4,196.4c0-5.7-4.6-10.3-10.3-10.3H189.2c-5.7,0-10.3,4.6-10.3,10.3s4.6,10.3,10.3,10.3h16.4
			c-12.6,12.7-20.5,30.2-20.5,49.4c0,38.6,31.4,70.1,70.1,70.1s70.1-31.4,70.1-70.1c0-19.3-7.8-36.8-20.5-49.4H321
			C326.7,206.7,331.4,202.1,331.4,196.4z M255.1,305.6c-27.3,0-49.4-22.2-49.4-49.4s22.2-49.4,49.4-49.4s49.4,22.2,49.4,49.4
			S282.4,305.6,255.1,305.6z"/>
	</g>
</g>
<g>
	<g>
		<path d="M331.4,45c0-5.7-4.6-10.3-10.3-10.3H189.2c-5.7,0-10.3,4.6-10.3,10.3s4.6,10.3,10.3,10.3h16.4
			c-12.6,12.7-20.5,30.2-20.5,49.4c0,38.6,31.4,70.1,70.1,70.1s70.1-31.4,70.1-70.1c0-19.3-7.8-36.8-20.5-49.4H321
			C326.7,55.3,331.4,50.7,331.4,45z M255.1,154.2c-27.3,0-49.4-22.2-49.4-49.4s22.2-49.4,49.4-49.4s49.4,22.2,49.4,49.4
			S282.4,154.2,255.1,154.2z"/>
	</g>
</g>
<g>
	<g>
		<path d="M336.5,338.6h-2.1c-5.7,0-10.3,4.6-10.3,10.3s4.6,10.3,10.3,10.3h2.1c5.7,0,10.3-4.6,10.3-10.3S342.2,338.6,336.5,338.6z"
			/>
	</g>
</g>
<g>
	<g>
		<path d="M304.7,359.2h3c5.7,0,10.3-4.6,10.3-10.3s-4.6-10.3-10.3-10.3H189.2c-5.7,0-10.3,4.6-10.3,10.3s4.6,10.3,10.3,10.3h16.4
			c-12.6,12.7-20.5,30.2-20.5,49.4c0,38.6,31.4,70.1,70.1,70.1s70.1-31.4,70.1-70.1C325.2,389.3,317.3,371.8,304.7,359.2z
			 M255.1,458.1c-27.3,0-49.4-22.2-49.4-49.4s22.2-49.4,49.4-49.4s49.4,22.2,49.4,49.4S282.4,458.1,255.1,458.1z"/>
	</g>
</g>
<g>
	<g>
		<path d="M390,214.6c1.1,0.4,2.2,0.5,3.2,0.5c4.3,0,8.3-2.7,9.7-7c1.8-5.4-1.1-11.2-6.5-13l-19.7-6.6V59.2l13.2,4.4
			c1.1,0.4,2.2,0.5,3.2,0.5c4.3,0,8.3-2.7,9.7-7c1.8-5.4-1.1-11.2-6.5-13l-19.7-6.6v-4.7C376.8,14.7,362,0,343.9,0H166.3
			c-18.1,0-32.9,14.7-32.9,32.9v4.7l-19.7,6.6c-5.4,1.8-8.3,7.6-6.5,13c1.4,4.3,5.4,7,9.7,7c1.1,0,2.2-0.2,3.2-0.5l13.2-4.4v129.3
			l-19.7,6.6c-5.4,1.8-8.3,7.6-6.5,13c1.4,4.3,5.4,7,9.7,7c1.1,0,2.2-0.2,3.2-0.5l13.2-4.4v130.3l-19.7,6.6c-5.4,1.8-8.3,7.6-6.5,13
			c1.4,4.3,5.4,7,9.7,7c1.1,0,2.2-0.2,3.2-0.5l13.2-4.4v115.3c0,18.1,14.7,32.9,32.9,32.9h177.6c18.1,0,32.9-14.7,32.9-32.9V362.1
			l13.2,4.4c1.1,0.4,2.2,0.5,3.2,0.5c4.3,0,8.3-2.7,9.7-7c1.8-5.4-1.1-11.2-6.5-13l-19.7-6.6V210.2L390,214.6z M356.2,477.4
			c0,6.8-5.5,12.3-12.3,12.3H166.3c-6.8,0-12.3-5.5-12.3-12.3V32.9c0-6.8,5.5-12.3,12.3-12.3h177.6c6.8,0,12.3,5.5,12.3,12.3
			L356.2,477.4L356.2,477.4z"/>
	</g>
</g>
</svg>
